<svg id="svg" version="1.1" width="400" height="400" viewBox="0 0 400 400" xmlns="http://www.w3.org/2000/svg" xmlns:xlink="http://www.w3.org/1999/xlink" ><g id="svgg"><path id="path0" d="M191.440 71.387 C 191.227 72.192,189.217 80.201,186.974 89.184 C 184.730 98.167,182.831 105.581,182.753 105.659 C 182.577 105.834,173.122 103.543,153.751 98.633 C 145.610 96.569,138.822 95.021,138.668 95.194 C 138.385 95.511,133.184 116.127,133.070 117.385 C 133.018 117.956,134.334 118.395,141.211 120.098 C 155.042 123.524,158.984 126.491,158.984 133.471 C 158.984 136.661,134.360 233.920,133.071 235.820 C 130.339 239.848,127.911 240.040,116.444 237.137 C 112.061 236.027,108.354 235.259,108.206 235.431 C 107.764 235.942,97.532 259.774,97.698 259.903 C 97.783 259.968,107.585 262.468,119.482 265.457 C 132.399 268.703,141.190 271.094,141.305 271.395 C 141.411 271.671,139.544 279.713,137.155 289.266 C 134.767 298.818,132.813 306.858,132.813 307.132 C 132.813 307.626,153.804 313.123,154.196 312.731 C 154.297 312.630,156.364 304.616,158.789 294.922 C 161.214 285.228,163.265 277.230,163.346 277.148 C 163.482 277.013,180.475 281.248,180.814 281.502 C 180.896 281.564,179.006 289.441,176.615 299.007 C 174.223 308.573,172.266 316.644,172.266 316.942 C 172.266 317.606,193.234 322.957,193.721 322.417 C 193.892 322.226,196.012 314.116,198.431 304.395 C 202.415 288.386,202.904 286.719,203.618 286.719 C 204.051 286.719,206.446 287.059,208.941 287.476 C 225.296 290.206,240.673 290.051,250.977 287.051 C 264.869 283.006,274.740 272.646,280.422 256.147 C 288.247 233.428,282.646 216.861,263.352 205.657 L 260.102 203.769 263.487 202.666 C 279.445 197.465,288.459 183.782,288.403 164.844 C 288.357 149.192,279.430 137.358,260.578 127.957 C 255.999 125.674,245.907 121.484,244.986 121.484 C 244.031 121.484,244.337 119.904,248.585 102.927 C 251.588 90.921,252.898 85.050,252.596 84.945 C 250.988 84.387,231.508 79.690,231.371 79.827 C 231.277 79.921,229.305 87.665,226.988 97.035 C 224.672 106.406,222.662 114.187,222.521 114.328 C 222.271 114.578,220.400 114.190,209.916 111.711 L 204.793 110.500 209.208 92.856 C 211.636 83.151,213.590 75.190,213.550 75.165 C 213.345 75.034,192.533 69.922,192.208 69.922 C 191.998 69.922,191.653 70.581,191.440 71.387 M206.152 137.931 C 235.989 144.829,248.139 154.668,245.206 169.557 C 241.991 185.874,226.860 189.969,196.990 182.606 C 193.078 181.642,189.449 180.690,188.926 180.491 L 187.974 180.129 193.450 158.229 C 196.462 146.183,198.991 136.328,199.072 136.328 C 199.152 136.328,202.338 137.049,206.152 137.931 M189.136 203.723 C 224.304 211.830,238.672 221.260,238.672 236.234 C 238.672 251.507,226.862 259.311,206.055 257.788 C 197.995 257.198,171.400 251.886,170.504 250.686 C 170.462 250.631,173.118 239.775,176.406 226.563 C 179.693 213.350,182.392 202.495,182.403 202.441 C 182.446 202.220,183.430 202.407,189.136 203.723 " stroke="none" fill="#fcfbfb" fill-rule="evenodd"></path><path id="path1" d="M186.133 0.262 C 89.946 8.335,14.811 78.518,1.786 172.461 C 0.360 182.743,0.197 185.567,0.196 200.000 C 0.188 324.493,110.709 417.774,233.900 397.249 C 319.100 383.054,386.271 313.677,398.214 227.539 C 399.653 217.164,399.805 214.478,399.795 199.609 C 399.729 94.627,320.035 8.679,215.080 0.397 C 210.520 0.038,189.954 -0.058,186.133 0.262 M202.662 72.236 C 208.531 73.713,213.428 75.016,213.544 75.133 C 213.712 75.300,205.795 108.400,205.215 109.961 C 205.106 110.254,219.742 113.958,222.030 114.218 C 222.223 114.240,224.345 106.436,226.745 96.875 C 231.061 79.685,231.120 79.494,232.059 79.621 C 233.747 79.851,252.777 84.678,253.043 84.944 C 253.184 85.086,251.305 93.196,248.866 102.967 C 246.427 112.739,244.498 120.799,244.579 120.880 C 244.660 120.960,246.572 121.722,248.828 122.572 C 276.550 133.026,288.486 145.879,288.443 165.234 C 288.401 184.656,278.577 199.167,262.780 203.144 C 260.516 203.714,260.495 203.925,262.598 204.951 C 281.573 214.205,288.346 233.015,280.836 255.606 C 271.245 284.458,250.416 294.125,210.938 288.048 C 207.393 287.502,204.156 287.024,203.745 286.985 C 203.076 286.921,202.527 288.799,198.510 304.883 C 196.043 314.766,193.984 322.902,193.937 322.964 C 193.810 323.129,172.256 317.699,171.994 317.436 C 171.872 317.315,173.752 309.292,176.172 299.609 C 178.592 289.926,180.471 281.903,180.347 281.780 C 180.224 281.656,177.169 280.783,173.558 279.840 C 169.947 278.896,166.238 277.925,165.317 277.683 C 163.232 277.136,164.096 274.730,158.984 295.313 C 156.557 305.088,154.545 313.123,154.513 313.169 C 154.309 313.466,132.424 307.619,132.433 307.269 C 132.439 307.031,134.449 298.841,136.900 289.070 C 139.351 279.299,141.324 271.276,141.284 271.240 C 141.244 271.204,131.395 268.709,119.399 265.696 C 107.402 262.682,97.509 260.139,97.413 260.044 C 97.233 259.864,107.676 235.556,108.137 235.083 C 108.281 234.935,112.090 235.765,116.602 236.928 C 127.723 239.793,130.252 239.609,132.893 235.742 C 134.270 233.725,158.594 136.924,158.594 133.459 C 158.594 126.155,155.026 123.632,139.416 119.898 L 132.544 118.254 135.471 106.490 C 137.082 100.020,138.423 94.691,138.452 94.647 C 138.481 94.604,146.145 96.495,155.483 98.851 C 173.711 103.449,182.470 105.551,182.651 105.369 C 182.714 105.307,184.714 97.438,187.097 87.882 C 191.473 70.332,191.684 69.523,191.882 69.542 C 191.943 69.548,196.794 70.760,202.662 72.236 M193.750 158.084 C 190.850 169.832,188.477 179.623,188.477 179.843 C 188.477 180.062,191.902 181.087,196.088 182.119 C 225.713 189.428,240.750 186.075,244.524 171.317 C 248.202 156.937,238.324 146.727,214.453 140.240 C 210.077 139.050,200.119 136.717,199.435 136.721 C 199.209 136.722,196.650 146.335,193.750 158.084 M176.785 226.074 C 173.582 238.911,170.892 249.684,170.808 250.013 C 170.635 250.696,186.590 254.781,195.117 256.236 C 222.093 260.840,236.860 254.644,238.487 238.040 C 239.820 224.437,226.934 213.819,200.586 206.808 C 195.007 205.324,183.899 202.734,183.110 202.734 C 182.775 202.734,180.689 210.435,176.785 226.074 " stroke="none" fill="#f4941c" fill-rule="evenodd"></path><path id="path2" d="" stroke="none" fill="#fcbe75" fill-rule="evenodd"></path><path id="path3" d="M217.876 186.214 C 218.362 186.307,219.065 186.304,219.438 186.206 C 219.812 186.108,219.414 186.032,218.555 186.036 C 217.695 186.040,217.390 186.120,217.876 186.214 M222.363 186.207 C 222.739 186.305,223.354 186.305,223.730 186.207 C 224.106 186.109,223.799 186.028,223.047 186.028 C 222.295 186.028,221.987 186.109,222.363 186.207 M232.031 221.680 C 232.760 222.432,233.444 223.047,233.552 223.047 C 233.659 223.047,233.151 222.432,232.422 221.680 C 231.693 220.928,231.009 220.313,230.901 220.313 C 230.794 220.313,231.302 220.928,232.031 221.680 M210.059 258.088 C 210.542 258.181,211.333 258.181,211.816 258.088 C 212.300 257.995,211.904 257.919,210.938 257.919 C 209.971 257.919,209.575 257.995,210.059 258.088 M229.785 289.740 C 230.806 289.821,232.476 289.821,233.496 289.740 C 234.517 289.660,233.682 289.594,231.641 289.594 C 229.600 289.594,228.765 289.660,229.785 289.740 " stroke="none" fill="#fccc95" fill-rule="evenodd"></path><path id="path4" d="M277.514 194.629 L 276.367 195.898 277.637 194.751 C 278.335 194.120,278.906 193.549,278.906 193.482 C 278.906 193.180,278.584 193.446,277.514 194.629 " stroke="none" fill="#fca848" fill-rule="evenodd"></path></g></svg>